<svg xmlns="http://www.w3.org/2000/svg" width="34.24" height="34.93" viewBox="0 0 34.24 34.93"><title>equal-housing</title><path d="M4.87 9.53v12.38H29.4V9.6L17.13 3.73zM23.63 19H10.57v-3.4h13.06zm0-5.47H10.57v-3.48h13.06z" fill="none"/><path d="M17.13 0L0 8.11v3.73l1.6-.76v14.1h31.07v-14l1.57.75V8.11zM29.4 21.91H4.87V9.53l12.26-5.8L29.4 9.6z"/><path d="M10.57 15.6h13.06v3.43H10.57zm0-5.55h13.06v3.51H10.57zM3.09 35a1.37 1.37 0 1 0 0-2.74 1.37 1.37 0 1 0 0 2.74zm0-2.24a.86.86 0 0 1 .84.85.93.93 0 0 1-.84.89.93.93 0 0 1-.84-.89.86.86 0 0 1 .84-.85zM6 34h.28c.59 0 .92-.27.92-.82s-.39-.81-1-.81h-.72v2.61H6V34zm0-1.21h.1c.31 0 .52 0 .52.38s-.18.4-.51.4H6v-.79zM8.75 34H9c.59 0 .92-.27.92-.82s-.39-.81-1-.81H8.2v2.61h.56V34zm0-1.21h.1c.31 0 .52 0 .52.38s-.18.4-.51.4h-.11v-.79zM12.19 35a1.37 1.37 0 1 0-1.42-1.38A1.37 1.37 0 0 0 12.19 35zm0-2.24a.86.86 0 0 1 .84.85.93.93 0 0 1-.84.89.93.93 0 0 1-.84-.89.86.86 0 0 1 .84-.85zm3.52 1.07a.7.7 0 0 0 .59-.72c0-.56-.39-.78-1-.78h-.76v2.61h.56v-1.06l.7 1.05h.68l-.81-1.1zm-.57-1.09h.08c.3 0 .52.06.52.38s-.22.4-.52.4h-.07v-.78zm3.12.03h.58v-.45h-1.71v.45h.57v2.16h.56v-2.16zm1.48 1.11a1.07 1.07 0 1 0 2.13 0v-1.56h-.56v1.46c0 .32 0 .77-.51.77s-.51-.45-.51-.77v-1.46h-.56v1.56zm3.22 1.05h.56v-1.77h.01l1.51 1.82h.4v-2.66h-.56v1.76l-1.51-1.82h-.41v2.67zm4.15-2.61h-.56v2.61h.56v-2.61zm2.04.45h.58v-.45h-1.71v.45h.57v2.16h.56v-2.16zm2.12.96v1.2h.55v-1.2l.91-1.41h-.65l-.55.91-.51-.91h-.64l.89 1.41zm-27.98-5v-.44H1.81v2.61h1.48v-.44h-.92v-.71h.89v-.44h-.89v-.58h.92zM6.48 31l-.39-.42a1.44 1.44 0 0 0 .34-.94A1.38 1.38 0 0 0 5 28.22 1.37 1.37 0 1 0 5 31a1.39 1.39 0 0 0 .71-.18l.2.22.57-.04zm-1.06-1.1h-.58l.47.49a.64.64 0 0 1-.3.09.82.82 0 0 1-.84-.85.84.84 0 1 1 1.68 0 .85.85 0 0 1-.18.54l-.25-.26zm1.33-.05A1 1 0 0 0 7.82 31a1 1 0 0 0 1.06-1.12v-1.59h-.56v1.46c0 .32 0 .77-.51.77s-.5-.45-.5-.77v-1.46h-.56v1.56zm4.17.5l.22.55h.6l-1.09-2.68h-.43L9.1 30.9h.59l.24-.55zm-.16-.42h-.68l.32-.93.36.95zm1.78-1.64h-.56v2.61h1.35v-.44h-.79v-2.17zm3.79 1.03v-1.03h-.55v2.61h.55v-1.17h1.04v1.17h.56v-2.61h-.56v1.03h-1.04zM19.68 31a1.37 1.37 0 1 0-1.42-1.38A1.37 1.37 0 0 0 19.68 31zm0-2.24a.86.86 0 0 1 .84.85.84.84 0 1 1-1.68 0 .85.85 0 0 1 .84-.85zm1.75 1.09a1.07 1.07 0 1 0 2.13 0v-1.56H23v1.46c0 .32 0 .77-.51.77s-.51-.45-.51-.77v-1.46h-.56v1.56zm4.2-1.34a1.24 1.24 0 0 0-.78-.29.8.8 0 0 0-.85.78c0 .4.27.57.64.71s.5.16.5.43a.36.36 0 0 1-.37.38.58.58 0 0 1-.52-.38l-.36.32a1 1 0 0 0 .88.51.86.86 0 0 0 .94-.89c0-.87-1.14-.69-1.14-1.13a.33.33 0 0 1 .35-.29.53.53 0 0 1 .43.21l.26-.35zm1.01-.22h-.56v2.61h.56v-2.61zm.47 2.61h.56v-1.77h.01l1.51 1.82h.4v-2.66h-.56v1.75l-1.51-1.82h-.41v2.68zm4.25-1.39v.41H32a.65.65 0 0 1-.65.59.85.85 0 0 1-.81-.91.86.86 0 0 1 .81-.93.73.73 0 0 1 .65.42l.49-.24a1.26 1.26 0 0 0-1.13-.62 1.35 1.35 0 0 0-1.4 1.38A1.33 1.33 0 0 0 31.29 31a1.27 1.27 0 0 0 1.3-1.39v-.06z"/></svg>