<svg xmlns="http://www.w3.org/2000/svg" width="30.11" height="34.93" viewBox="0 0 30.11 34.93"><title>realtor</title><path d="M.61 30.81h.65a1.33 1.33 0 0 1 1 .22 1 1 0 0 1 .31.78.89.89 0 0 1-1 .89h-.41l1.33 2.17h.56L2 33.11a1.26 1.26 0 0 0 1.1-1.32 1.41 1.41 0 0 0-.59-1.16 1.79 1.79 0 0 0-1.1-.26H.17v4.52h.44v-4.08zm4.53 1.57v-1.57h1.91v-.44H4.73v4.5h2.32v-.44H5.14v-1.59h1.91v-.46H5.14zm6 .68H9.43l.85-2.26.86 2.26zm-2.39 1.81l.54-1.41h2l.54 1.41h.48l-1.74-4.52H10l-1.73 4.52zm6.87 0v-.44h-1.59v-4.06h-.45v4.5h2.04zm2.22 0v-4.06h.91v-.44h-2.24v.44h.88v4.06h.45zm1.85-2.28a2.31 2.31 0 0 0 4 1.62 2.41 2.41 0 0 0-.07-3.21 2.27 2.27 0 0 0-3.2 0 2.15 2.15 0 0 0-.73 1.65zm.46 0a2 2 0 0 1 .68-1.48 1.73 1.73 0 0 1 1.17-.43 1.91 1.91 0 0 1 0 3.81 1.82 1.82 0 0 1-1.84-1.91zm6.09-1.78h.65a1.33 1.33 0 0 1 1 .22 1 1 0 0 1 .31.78.89.89 0 0 1-1 .89h-.43l1.33 2.17h.52l-1.1-1.76a1.26 1.26 0 0 0 1.1-1.32 1.43 1.43 0 0 0-.57-1.16 1.79 1.79 0 0 0-1.1-.26h-1.2v4.52h.44v-4.07zM0 0v28.74h28.5V0zm26.25 25.09H15v-10.8zM15 14.23V3.41h3.2a5.43 5.43 0 0 1 0 10.84zM12 3.3v21.84H3.75V3.3zm17.3 26.23a.77.77 0 0 0-.57.24.78.78 0 0 0-.24.57.81.81 0 1 0 1.62 0 .8.8 0 0 0-.81-.81zm.73.81a.67.67 0 0 1-.21.5.76.76 0 0 1-.52.22.78.78 0 0 1-.52-.22.69.69 0 0 1-.22-.52.78.78 0 0 1 .22-.52.71.71 0 0 1 .5-.21.69.69 0 0 1 .52.22.74.74 0 0 1 .24.54zm-.71-.47H29v.94h.14v-.4h.22l.21.4h.17l-.21-.43a.24.24 0 0 0 .22-.24c0-.21-.16-.27-.42-.27zm0 .09c.18 0 .27.05.27.17s-.09.17-.27.17h-.16V30z"/></svg>