<svg xmlns="http://www.w3.org/2000/svg" width="166.88" height="39" viewBox="0 0 166.88 39"><title>TEN-logo</title><path fill="#2399a6" d="M50.89.53H32.92L0 33.67h18.68L50.89.53z"/><path fill="#26b9c0" d="M48.91.53H32.92L0 33.67h16.69L48.91.53z"/><path fill="#2399a6" d="M49.67 33.15h2.21L18.97 0H.99l25.15 26.02 8.21-8.42 15.32 15.55z"/><path fill="#237377" d="M33.27 16.69l-16.23-.11L0 33.67h16.69l16.58-16.98z"/><path fill="#f8c82f" d="M35.77 26.6l-4.55-.75.1 4.73h4.45V26.6zm-4.45 4.51l.08 3.67 4.37-.44v-3.23h-4.45zm7.65-.53l.08-3.44-2.75-.46v3.9h2.67zm-2.67 3.7l2.59-.26.07-2.91H36.3v3.17z"/><path d="M36.29 6.61V5.23h19.79v1.38H47v24.46h-1.63V6.61zm48.44 23.08v1.38H67.18V5.23h17.37v1.38H68.77V17h14.84v1.37H68.77v11.32zM97.52 5.23h2l16.32 23.7h.07V5.23h1.59v25.84h-1.88L99.19 7.19h-.08v23.88h-1.59z" fill="#404041"/><path d="M132.19 19h.9a4.76 4.76 0 0 1 1.48.25 2.07 2.07 0 0 1 1.5 2.21 3.15 3.15 0 0 1-.55 2 6.14 6.14 0 0 1-1.28 1.24 5.81 5.81 0 0 1-2 .84 13.93 13.93 0 0 1-2.53.38 17.28 17.28 0 0 0 2.29 3.7 2.4 2.4 0 0 0 1.84 1q1.5 0 3.36-2.44c.12-.16.18-.16.18 0a.59.59 0 0 1-.14.36q-2.24 3.16-3.83 3.16l-.76-.16q-1.7-.74-3.58-4.86l-.4-.87c.28-.39.48-.58.6-.58h1.79a8.48 8.48 0 0 0 1.17-.16 2.39 2.39 0 0 0 1.05-.43 4.35 4.35 0 0 0 1.46-2.17 3.17 3.17 0 0 0 .2-1.06 2.71 2.71 0 0 0-.18-1 1.71 1.71 0 0 0-1.75-1.1 2.06 2.06 0 0 0-1.65.52 9.89 9.89 0 0 0-.86 1.28c-.29.5-.53.93-.73 1.3s-.44.86-.75 1.48l-.57 1.15-.34.64-.45.82c-.15.27-.32.59-.52 1s-.37.72-.52 1.05l-.43.94c-.3.67-.39 1.1-.29 1.3s0 .16-.27.07h-.61a2 2 0 0 0-.83.36 3 3 0 0 1-1.11.51c-.19 0-.28 0-.28-.14a.07.07 0 0 1 0-.07 2 2 0 0 0 1.43-1.07q1-1.7 1.76-3.1t1.62-3q.87-1.59 1.19-2.22c.21-.42.4-.8.56-1.15s.28-.58.34-.69a2.28 2.28 0 0 1 1.32-.89h-1.16a15.46 15.46 0 0 0-2.53.32c-1.55.28-2.33.9-2.33 1.86a.83.83 0 0 0 .36.76c.07 0 .07.07 0 .12a.22.22 0 0 1-.25 0 2.23 2.23 0 0 1-.41-.5 2.37 2.37 0 0 1-.45-1.23q0-1.39 2.6-1.57h4.55z" fill="#cc4b48"/><path d="M138.2 28.5a4.54 4.54 0 0 0-.34 1.62c0 .5.31.75.92.75a2.65 2.65 0 0 0 .87-.2 5.37 5.37 0 0 0 1.81-1.12 11.54 11.54 0 0 0 1.54-1.61.25.25 0 0 1 .07.18.71.71 0 0 1-.16.33 8.79 8.79 0 0 1-2.06 2 4.29 4.29 0 0 1-2.51.88c-1.1 0-1.65-.41-1.65-1.21a5.75 5.75 0 0 1 1-2.66 6.46 6.46 0 0 1 1.66-1.71 3.49 3.49 0 0 1 2.06-.8c.66 0 1 .31 1 .94a1.66 1.66 0 0 1-.77 1.49 6.91 6.91 0 0 1-1.75.81 5.85 5.85 0 0 1-1.69.31zm.18-.45h.5a3.15 3.15 0 0 0 .88-.16 2.33 2.33 0 0 0 1.66-1.43 1.79 1.79 0 0 0 .11-.59.46.46 0 0 0-.18-.4.6.6 0 0 0-.31-.13q-1.45.03-2.66 2.71z" fill="#cc4b48"/><path d="M149.66 27.85a.25.25 0 0 1 0 .18 1.43 1.43 0 0 1-.32.56q-2 2.64-3.69 2.64c-.36 0-.54-.14-.54-.43a4.46 4.46 0 0 1 .87-2.15 23.56 23.56 0 0 1-1.79 1.69 3 3 0 0 1-1.88.86c-.27 0-.4-.17-.4-.49a.46.46 0 0 1 0-.16 6.76 6.76 0 0 1 1-2.69q1.75-2.82 3.63-2.82h2.57c.07 0 .11 0 .11.09s-.07.18-.2.18-.47.24-.78.73-.73 1.23-1.24 2.24a6.52 6.52 0 0 0-.77 1.9c0 .26.11.39.32.39s.82-.3 1.43-.9c.33-.34.57-.61.74-.81l.32-.38zm-2.4-2.08c0-.28-.19-.43-.57-.43a2 2 0 0 0-1.27.65 9.13 9.13 0 0 0-1.51 2.09 5.12 5.12 0 0 0-.82 2.09c0 .18.06.27.18.27q.65 0 2.32-2t1.67-2.67z" fill="#cc4b48"/><path d="M157.27 17.44c.37 0 .56.24.56.72q0 1.19-2 3.83a32.17 32.17 0 0 1-4.61 5 9.34 9.34 0 0 0-.87 2.31 1.75 1.75 0 0 0-.07.47c0 .58.27.87.83.87h.29q.94-.18 3-2.73a.28.28 0 0 1 0 .19 2.89 2.89 0 0 1-.58.87c-.39.49-.68.82-.87 1a3.53 3.53 0 0 1-2.31 1.28c-.77 0-1.17-.37-1.17-1.12a6.48 6.48 0 0 1 .72-2.46l-.94 1c-.11.15-.16.13-.16 0a.65.65 0 0 1 .17-.39c.11-.14.34-.41.68-.82l.76-.9q.31-.58 1.28-2.53a41.2 41.2 0 0 1 3-5.46 5.52 5.52 0 0 0 1-.58 2.35 2.35 0 0 1 1.29-.55zm-1.77 4.32a9 9 0 0 0 1.59-3.65c0-.18-.07-.27-.2-.27q-.74 0-2.91 3.9-1.84 3.31-2.33 4.32a19.74 19.74 0 0 0 3.86-4.3z" fill="#cc4b48"/><path d="M155.86 25h.69a17.6 17.6 0 0 0 1.75-3.11 1.94 1.94 0 0 0 .63-.26 3 3 0 0 0 .61-.43c.13-.13.21-.19.25-.19s.06 0 .06.05-.06.12-.18.26a15.55 15.55 0 0 0-.88 1.33 24.29 24.29 0 0 0-1.29 2.34h1.81c.15 0 .23 0 .25.07s0 .09-.15.12l-.31.1a3.69 3.69 0 0 1-.64.09c-.73 0-1.18.19-1.35.44a12.81 12.81 0 0 0-.88 1.89q-1.17 2.82-.36 2.82t2.55-2.15l.43-.54a.41.41 0 0 1 0 .21 1.08 1.08 0 0 1-.25.48q-2.06 2.64-3.72 2.64c-.36 0-.54-.14-.54-.43a7.23 7.23 0 0 1 .87-2.28l1.21-2.71-2.33 2.84q-.16.22-.16 0a.46.46 0 0 1 .11-.31q1.52-1.9 2.11-2.67c-.14 0-.54 0-1.21.11-.15 0-.09-.12.17-.36s.44-.36.55-.36z" fill="#cc4b48"/><path d="M162.65 25.36a1.76 1.76 0 0 1-.38.85 22.25 22.25 0 0 0-1.15 2.07 6.51 6.51 0 0 0-.77 1.9c0 .26.1.39.31.39s.77-.33 1.45-1a11.26 11.26 0 0 0 1.89-2.43 7.18 7.18 0 0 1 1-1.56 7.15 7.15 0 0 1 1.19-.54 2.08 2.08 0 0 1 .44 0c.14 0 .21.05.21.16s-.07.16-.2.16a.88.88 0 0 0-.76.42 64.85 64.85 0 0 0-3 6.7 24.28 24.28 0 0 1-1.22 2.52 10.82 10.82 0 0 1-1.61 2.11 5.35 5.35 0 0 1-3.9 1.91 3.64 3.64 0 0 1-1.68-.4 2.53 2.53 0 0 1-1.37-2.44v-.38c0-.22.09-.34.27-.34v.56a1.94 1.94 0 0 0 .63 1.58 2.28 2.28 0 0 0 1.55.55 4.73 4.73 0 0 0 1.76-.34 7.9 7.9 0 0 0 3.23-2.63 22.07 22.07 0 0 0 2.45-4.4q.54-1.32 1.14-3.11a19 19 0 0 1-1.91 2.33 3.77 3.77 0 0 1-2.51 1.28c-.36 0-.54-.14-.54-.43a7.16 7.16 0 0 1 .88-2.28l.54-1.1c.22-.46.38-.77.46-.92a.83.83 0 0 0 .12-.33c0-.07 0-.1-.07-.1s-.39.21-.87.65a13.16 13.16 0 0 0-1.66 1.93c-.09.13-.14.13-.16 0a.41.41 0 0 1 .11-.35c.61-.82 1.11-1.44 1.49-1.87l.63-.71.25-.24a2 2 0 0 1 .3-.23 1.8 1.8 0 0 1 1-.27c.29-.03.46.08.46.33z" fill="#cc4b48"/></svg>