<svg xmlns="http://www.w3.org/2000/svg" width="51.88" height="34.78" viewBox="0 0 51.88 34.78"><title>TEN-logo-mark</title><path fill="#2399a6" d="M50.89.53H32.92L0 33.67h18.68L50.89.53z"/><path fill="#26b9c0" d="M48.91.53H32.92L0 33.67h16.69L48.91.53z"/><path fill="#2399a6" d="M49.67 33.15h2.21L18.97 0H.99l25.15 26.02 8.21-8.42 15.32 15.55z"/><path fill="#237377" d="M33.27 16.69l-16.23-.11L0 33.67h16.69l16.58-16.98z"/><path fill="#f8c82f" d="M35.77 26.6l-4.55-.75.1 4.73h4.45V26.6zm-4.45 4.51l.08 3.67 4.37-.44v-3.23h-4.45zm7.65-.53l.08-3.44-2.75-.46v3.9h2.67zm-2.67 3.7l2.59-.26.07-2.91H36.3v3.17z"/></svg>