<svg width="14.000000000000002" height="14.000000000000002" xmlns="http://www.w3.org/2000/svg">
 <title>account</title>

 <g>
  <title>background</title>
  <rect fill="none" id="canvas_background" height="402" width="582" y="-1" x="-1"/>
 </g>
 <g>
  <title>Layer 1</title>
  <path fill="#2399a6" id="svg_1" d="m2.39,9.72a12.34,12.34 0 0 1 4.61,-0.96a12.34,12.34 0 0 1 4.61,1q2.39,1 2.39,2.52l0,1.72l-14,0l0,-1.76q0,-1.56 2.39,-2.52zm7.07,-3.72a3.35,3.35 0 0 1 -2.46,1a3.35,3.35 0 0 1 -2.46,-1a3.35,3.35 0 0 1 -1,-2.46a3.42,3.42 0 0 1 1,-2.54a3.32,3.32 0 0 1 2.46,-1a3.32,3.32 0 0 1 2.46,1a3.42,3.42 0 0 1 1,2.48a3.35,3.35 0 0 1 -1,2.52z"/>
 </g>
</svg>