<svg width="14" height="14" xmlns="http://www.w3.org/2000/svg">
 <title>contact</title>

 <g>
  <title>background</title>
  <rect fill="none" id="canvas_background" height="402" width="582" y="-1" x="-1"/>
 </g>
 <g>
  <title>Layer 1</title>
  <path fill="#2399a6" id="svg_1" d="m2.81,6.05a11.68,11.68 0 0 0 5.14,5.14l1.71,-1.71a0.68,0.68 0 0 1 0.8,-0.18a8.7,8.7 0 0 0 2.77,0.44a0.75,0.75 0 0 1 0.77,0.77l0,2.73a0.75,0.75 0 0 1 -0.77,0.77a12.75,12.75 0 0 1 -9.35,-3.88a12.75,12.75 0 0 1 -3.88,-9.36a0.75,0.75 0 0 1 0.77,-0.77l2.73,0a0.75,0.75 0 0 1 0.77,0.77a8.7,8.7 0 0 0 0.43,2.77a0.75,0.75 0 0 1 -0.18,0.8l-1.71,1.71z"/>
 </g>
</svg>