<!DOCTYPE svg PUBLIC "-//W3C//DTD SVG 20010904//EN" "http://www.w3.org/TR/2001/REC-SVG-20010904/DTD/svg10.dtd">
<svg version="1.0" xmlns="http://www.w3.org/2000/svg" width="100px" height="92px" viewBox="0 0 1000 920" preserveAspectRatio="xMidYMid meet">
<g id="layer101" fill="#2399a6" stroke="none">
 <path d="M26 894 l-26 -27 0 -358 0 -359 75 0 75 0 0 -75 0 -75 425 0 425 0 0 431 0 431 -29 29 -29 29 -445 0 -444 0 -27 -26z m872 -437 l2 -357 -320 0 -320 0 -2 313 -3 312 -50 0 -50 0 -3 -227 -2 -228 -25 0 -25 0 0 275 0 275 398 -2 397 -3 3 -358z"/>
 <path d="M324 716 c-3 -7 -4 -33 -2 -57 l3 -44 115 0 115 0 0 55 0 55 -113 3 c-90 2 -113 0 -118 -12z"/>
 <path d="M614 716 c-3 -7 -4 -33 -2 -57 l3 -44 115 0 115 0 0 55 0 55 -113 3 c-90 2 -113 0 -118 -12z"/>
 <path d="M324 546 c-3 -7 -4 -33 -2 -57 l3 -44 115 0 115 0 0 55 0 55 -113 3 c-90 2 -113 0 -118 -12z"/>
 <path d="M614 546 c-3 -7 -4 -33 -2 -57 l3 -44 115 0 115 0 0 55 0 55 -113 3 c-90 2 -113 0 -118 -12z"/>
 <path d="M324 336 c-3 -8 -4 -31 -2 -52 l3 -39 260 0 260 0 0 50 0 50 -258 3 c-214 2 -258 0 -263 -12z"/>
 </g>

</svg>