<!DOCTYPE svg PUBLIC "-//W3C//DTD SVG 20010904//EN" "http://www.w3.org/TR/2001/REC-SVG-20010904/DTD/svg10.dtd">
<svg version="1.0" xmlns="http://www.w3.org/2000/svg" width="96px" height="92px" viewBox="0 0 960 920" preserveAspectRatio="xMidYMid meet">
<g id="layer101" fill="#2399a6" stroke="none">
 <path d="M0 460 l0 -460 255 0 255 0 0 125 0 125 225 0 225 0 0 335 0 335 -480 0 -480 0 0 -460z m200 315 l0 -55 -55 0 -55 0 0 55 0 55 55 0 55 0 0 -55z m210 0 l0 -55 -55 0 -55 0 0 55 0 55 55 0 55 0 0 -55z m460 -190 l0 -245 -180 0 -180 0 0 35 c0 34 1 35 40 35 l40 0 0 70 0 70 -40 0 c-39 0 -40 1 -40 35 0 34 1 35 40 35 l40 0 0 70 0 70 -40 0 c-39 0 -40 1 -40 35 l0 35 180 0 180 0 0 -245z m-670 -20 l0 -55 -55 0 -55 0 0 55 0 55 55 0 55 0 0 -55z m210 0 l0 -55 -55 0 -55 0 0 55 0 55 55 0 55 0 0 -55z m-210 -210 l0 -55 -55 0 -55 0 0 55 0 55 55 0 55 0 0 -55z m210 0 l0 -55 -55 0 -55 0 0 55 0 55 55 0 55 0 0 -55z m-210 -210 l0 -55 -55 0 -55 0 0 55 0 55 55 0 55 0 0 -55z m210 0 l0 -55 -55 0 -55 0 0 55 0 55 55 0 55 0 0 -55z"/>
 <path d="M660 690 l0 -70 70 0 70 0 0 70 0 70 -70 0 -70 0 0 -70z"/>
 <path d="M660 480 l0 -70 70 0 70 0 0 70 0 70 -70 0 -70 0 0 -70z"/>
 </g>

</svg>