<!DOCTYPE svg PUBLIC "-//W3C//DTD SVG 20010904//EN" "http://www.w3.org/TR/2001/REC-SVG-20010904/DTD/svg10.dtd">
<svg version="1.0" xmlns="http://www.w3.org/2000/svg" width="104px" height="83px" viewBox="0 0 1040 830" preserveAspectRatio="xMidYMid meet">
<g id="layer101" fill="#2399a6" stroke="none">
 <path d="M0 415 l0 -415 520 0 520 0 0 415 0 415 -520 0 -520 0 0 -415z m650 205 l0 -110 -275 0 -275 0 0 110 0 110 275 0 275 0 0 -110z m290 -165 l0 -275 -90 0 -90 0 0 275 0 275 90 0 90 0 0 -275z m-290 -165 l0 -110 -275 0 -275 0 0 110 0 110 275 0 275 0 0 -110z"/>
 </g>

</svg>